<svg version="1.1" xmlns="http://www.w3.org/2000/svg" xmlns:xlink="http://www.w3.org/1999/xlink" x="0px" y="0px"
	 viewBox="0 0 48 48" style="enable-background:new 0 0 48 48;" xml:space="preserve">
<g id="Guide">
</g>
<g id="marcul02-IK48">
	<path d="M24.358,29.142c0,0.197-0.16,0.358-0.358,0.358s-0.358-0.16-0.358-0.358s0.16-0.358,0.358-0.358
		S24.358,28.945,24.358,29.142z M25.479,28.551c-0.188,0.061-0.291,0.263-0.23,0.45s0.263,0.291,0.45,0.23
		c0.188-0.061,0.291-0.263,0.23-0.45S25.666,28.49,25.479,28.551z M26.813,27.871c-0.16,0.116-0.195,0.34-0.079,0.499
		c0.116,0.16,0.34,0.195,0.499,0.079c0.16-0.116,0.195-0.34,0.079-0.499C27.196,27.791,26.972,27.755,26.813,27.871z M27.871,26.813
		c-0.116,0.16-0.081,0.383,0.079,0.499c0.16,0.116,0.383,0.081,0.499-0.079c0.116-0.16,0.081-0.383-0.079-0.499
		C28.211,26.617,27.987,26.653,27.871,26.813z M28.551,25.479c-0.061,0.188,0.042,0.389,0.23,0.45s0.389-0.042,0.45-0.23
		c0.061-0.188-0.042-0.389-0.23-0.45S28.612,25.291,28.551,25.479z M28.785,24c0,0.197,0.16,0.358,0.358,0.358S29.5,24.197,29.5,24
		s-0.16-0.358-0.358-0.358S28.785,23.803,28.785,24z M28.551,22.521c0.061,0.188,0.263,0.291,0.45,0.23s0.291-0.263,0.23-0.45
		c-0.061-0.188-0.263-0.291-0.45-0.23S28.49,22.334,28.551,22.521z M27.871,21.187c0.116,0.16,0.34,0.195,0.499,0.079
		c0.16-0.116,0.195-0.34,0.079-0.499c-0.116-0.16-0.34-0.195-0.499-0.079C27.791,20.804,27.755,21.028,27.871,21.187z
		 M26.813,20.129c0.16,0.116,0.383,0.081,0.499-0.079c0.116-0.16,0.081-0.383-0.079-0.499c-0.16-0.116-0.383-0.081-0.499,0.079
		C26.617,19.789,26.653,20.013,26.813,20.129z M25.479,19.449c0.188,0.061,0.389-0.042,0.45-0.23s-0.042-0.389-0.23-0.45
		c-0.188-0.061-0.389,0.042-0.45,0.23S25.291,19.388,25.479,19.449z M24,19.215c0.197,0,0.358-0.16,0.358-0.358S24.197,18.5,24,18.5
		s-0.358,0.16-0.358,0.358S23.803,19.215,24,19.215z M22.521,19.449c0.188-0.061,0.291-0.263,0.23-0.45s-0.263-0.291-0.45-0.23
		c-0.188,0.061-0.291,0.263-0.23,0.45S22.334,19.51,22.521,19.449z M21.187,20.129c0.16-0.116,0.195-0.34,0.079-0.499
		c-0.116-0.16-0.34-0.195-0.499-0.079c-0.16,0.116-0.195,0.34-0.079,0.499C20.804,20.209,21.028,20.245,21.187,20.129z
		 M20.129,21.187c0.116-0.16,0.081-0.383-0.079-0.499c-0.16-0.116-0.383-0.081-0.499,0.079c-0.116,0.16-0.081,0.383,0.079,0.499
		C19.789,21.383,20.013,21.347,20.129,21.187z M19.449,22.521c0.061-0.188-0.042-0.389-0.23-0.45s-0.389,0.042-0.45,0.23
		c-0.061,0.188,0.042,0.389,0.23,0.45S19.388,22.709,19.449,22.521z M19.215,24c0-0.197-0.16-0.358-0.358-0.358S18.5,23.803,18.5,24
		s0.16,0.358,0.358,0.358S19.215,24.197,19.215,24z M19.449,25.479c-0.061-0.188-0.263-0.291-0.45-0.23s-0.291,0.263-0.23,0.45
		c0.061,0.188,0.263,0.291,0.45,0.23S19.51,25.666,19.449,25.479z M20.129,26.813c-0.116-0.16-0.34-0.195-0.499-0.079
		c-0.16,0.116-0.195,0.34-0.079,0.499c0.116,0.16,0.34,0.195,0.499,0.079C20.209,27.196,20.245,26.972,20.129,26.813z
		 M21.187,27.871c-0.16-0.116-0.383-0.081-0.499,0.079c-0.116,0.16-0.081,0.383,0.079,0.499c0.16,0.116,0.383,0.081,0.499-0.079
		C21.383,28.211,21.347,27.987,21.187,27.871z M22.521,28.551c-0.188-0.061-0.389,0.042-0.45,0.23s0.042,0.389,0.23,0.45
		c0.188,0.061,0.389-0.042,0.45-0.23S22.709,28.612,22.521,28.551z M26.737,24c0-0.197-0.16-0.358-0.358-0.358
		c-0.197,0-0.358,0.16-0.358,0.358s0.16,0.358,0.358,0.358C26.577,24.358,26.737,24.197,26.737,24z M24.447,25.44
		c-1.298,0-2.49-0.453-3.433-1.208c-0.407,0.366-0.757,0.794-1.033,1.272l-0.134-0.457c0.254-0.386,0.556-0.737,0.895-1.047
		c-0.339-0.31-0.641-0.661-0.895-1.047l0.134-0.457c0.276,0.477,0.626,0.906,1.033,1.272c0.942-0.755,2.135-1.208,3.433-1.208
		c1.426,0,2.726,0.545,3.706,1.44C27.173,24.895,25.873,25.44,24.447,25.44z M21.29,24c0.874,0.681,1.969,1.088,3.157,1.088
		c1.188,0,2.283-0.406,3.157-1.088c-0.874-0.682-1.969-1.088-3.157-1.088C23.259,22.912,22.164,23.319,21.29,24z"/>
</g>
</svg>
