<svg version="1.1" xmlns="http://www.w3.org/2000/svg" xmlns:xlink="http://www.w3.org/1999/xlink" x="0px" y="0px"
	 viewBox="0 0 48 48" style="enable-background:new 0 0 48 48;" xml:space="preserve">
<g id="Guide">
</g>
<g id="achre71-IN10">
	<path d="M26.702,25.391l-1.28,0.539l0.26,0.289c-0.539,0.461-1.282,0.633-1.972,0.449l1.03-2.829l1.22,0.444l0.119-0.326
		l-1.22-0.444l0.229-0.63c0.46,0.07,0.921-0.191,1.086-0.645c0.188-0.517-0.078-1.09-0.596-1.278
		c-0.517-0.188-1.09,0.078-1.278,0.596c-0.165,0.453,0.019,0.948,0.415,1.191l-0.229,0.63l-1.218-0.443l-0.119,0.326l1.218,0.443
		l-1.029,2.826c-0.639-0.307-1.092-0.915-1.204-1.612l0.37-0.052l-0.634-1.235l-0.572,1.406l0.494-0.07
		c0.101,0.636,0.446,1.208,0.948,1.598l0.603,0.535l0.72-0.02c0.667,0.053,1.34-0.162,1.851-0.603l0.323,0.359L26.702,25.391z
		 M24.627,21.675c0.123-0.337,0.496-0.511,0.833-0.388s0.511,0.496,0.388,0.833s-0.496,0.511-0.833,0.388
		S24.504,22.012,24.627,21.675z"/>
</g>
</svg>
