<?xml version="1.0" encoding="UTF-8" ?>
<!DOCTYPE svg PUBLIC "-//W3C//DTD SVG 1.1//EN" "http://www.w3.org/Graphics/SVG/1.1/DTD/svg11.dtd">
<svg width="100pt" height="100pt" viewBox="0 0 150 150" version="1.1" xmlns="http://www.w3.org/2000/svg">
<rect width="100%" height="100%" fill="white"/>
<path fill="black" transform="scale(0.132, -0.132) translate(0, -1138)" d="M0 1137h1137v-1137h-1137v1137zM37 1096v-1061h1065v1061h-1065zM872 596q0 -72 -51 -105q-43 -24 -119 -44.5t-88 -43.5l-2 21q15 50 82 106.5t94 89.5t27 111q12 -11 37 -49q9 -18 15 -39q3 -13 4 -21t1 -26zM397 709q-28 -48 -28 -117q0 -47 21 -83q22 -34 59 -60 l45 -39q-148 0 -197 122l-6 21l-2 25q0 46 32.5 83t75.5 48zM745 700q-9 -71 -34 -102l-84 -84q-58 -53 -58 -86q2 -4 4 -7.5t9 -12.5l14 -23q-66 0 -119 72q-24 33 -40 69q-3 8 -8 27.5t-5 38.5q0 43 6 74t20 53q26 40 89.5 110.5t81.5 122.5q4 -13 45 -80q33 -52 58 -99 q21 -41 21 -73zM414 348l-183 -151l-26 -7q-21 0 -41 17q-25 19 -25 55q0 32 25 53l198 95l21 4q17 0 26.5 -10t12.5 -27q0 -21 -8 -29zM528 348l-24 -158q0 -20 -28 -44q-27 -21 -62 -21q-22 3 -43 25q-19 24 -19 45q0 11 6 22q69 118 99 154q12 12 26 12q17 0 29.5 -9.5 t15.5 -25.5zM768 217l4 -16q0 -41 -35 -64q-18 -12 -41 -12q-35 0 -47 22l-71 189q0 18 14.5 30.5t32.5 12.5q8 0 20 -6zM870 213l-151 145q-12 12 -12 27q0 13 12 31q12 12 31 12l11 -1l17 -7l201 -125q16 -10 16 -37t-22.5 -49.5t-65.5 -22.5z" />
</svg>