<?xml version="1.0" encoding="UTF-8" ?>
<!DOCTYPE svg PUBLIC "-//W3C//DTD SVG 1.1//EN" "http://www.w3.org/Graphics/SVG/1.1/DTD/svg11.dtd">
<svg width="100pt" height="100pt" viewBox="0 0 150 150" version="1.1" xmlns="http://www.w3.org/2000/svg">
<rect width="100%" height="100%" fill="white"/>
<path fill="black" transform="scale(0.132, -0.132) translate(0, -1138)" d="M0 1139h1137v-1139h-1137v1139zM29 1112v-1085h1081v1085h-1081zM705 180q18 0 47 15l45 26q21 15 47 15q18 0 47 -15l47 -29q23 -14 47 -14q38 0 56 9.5t24 15.5v-103q-6 -6 -29 -16t-51 -10q-16 0 -37 12l-19 10l-18 13l-30 20q-17 6 -37 6q-14 0 -19 -2q-5 0 -16 -6 l-18 -11l-23 -16l-33 -20q-12 -6 -30 -6v106zM625 545q-11 37 -44 83q-31 48 -106 79l-69 -93zM877 291l-658 162q-54 18 -98 102q-19 38 -31 80.5t-12 79.5l287 -86l98 129q31 -12 58 -31q27 -17 50 -37q42 -39 64 -67l15 -27l14 -29l10 -32l248 -76zM236 340l-158 41v70 l643 -164l-16 -64l-285 72q18 -21 18 -68q-9 -64 -39 -94q-39 -39 -94 -39q-52 0 -92.5 39.5t-40.5 93.5q0 51 39 95q15 18 25 18z" />
</svg>