<?xml version="1.0" encoding="UTF-8" ?>
<!DOCTYPE svg PUBLIC "-//W3C//DTD SVG 1.1//EN" "http://www.w3.org/Graphics/SVG/1.1/DTD/svg11.dtd">
<svg width="100pt" height="100pt" viewBox="0 0 150 150" version="1.1" xmlns="http://www.w3.org/2000/svg">
<rect width="100%" height="100%" fill="white"/>
<path fill="black" transform="scale(0.132, -0.132) translate(0, -1138)" d="M0 1137h1137v-1137h-1137v1137zM29 1112v-1085h1081v1085h-1081zM63 195q39 -25 76 -25q27 0 47 14l45 29q23 14 48 14q28 0 48 -14l46 -29q22 -14 49 -14l20 1l16 6l17 9l18 13l18 13l17 7q16 8 37 8q34 0 73 -29q42 -28 69 -28q18 0 36 6q17 8 35 23l35 20q14 8 37 8 q28 0 49 -14l47 -29q23 -14 49 -14q35 0 55 9t27 16v-105l-28 -18q-22 -11 -54 -11q-25 0 -49 17l-47 30q-25 17 -49 17q-27 0 -50 -17l-44 -30q-25 -17 -49 -17q-25 0 -48 17l-47 31q-22 16 -47 16q-24 0 -49 -16l-45 -31q-25 -17 -49 -17q-28 0 -49 17l-21 13l-24 18 q-27 16 -49 16q-15 0 -20 -2q-5 0 -17 -6l-37 -25l-35 -22q-15 -9 -31 -9q-37 0 -76 29v105zM428 694q0 45 18 84q21 41 51 63q13 9 31 16t39 7q39 0 69.5 -21t50.5 -64.5t20 -84.5q0 -72 -41 -122t-99 -50q-51 0 -98 51q-41 52 -41 121zM563 279q-27 0 -71 -25 q-39 -27 -72 -27q-26 0 -74 27l-38 18q-19 7 -29 7q-9 0 -19 -5l-14 -4q0 57 22.5 115t58 97.5t72.5 39.5q108 -39 166 -39q60 0 168 39q34 0 76 -39q35 -39 57.5 -99t22.5 -114l-21 6l-18 3q-27 0 -70 -25q-42 -27 -73 -27q-26 0 -68 27q-45 25 -76 25z" />
</svg>