<?xml version="1.0" standalone="yes"?>
<svg xmlns="http://www.w3.org/2000/svg" width="80" height="50">
<path style="fill:#ffffff; stroke:none;" d="M0 0L0 6L9 1L0 0z"/>
<path style="fill:#bfbfbf; stroke:none;" d="M9 0.53318C-4.08149 3.71414 0 21.7778 0 32C0 36.8514 -0.928062 42.8562 3.22839 46.3472C7.98484 50.3422 16.1667 49.9977 22 50C37.6189 50.006 58.0678 53.4441 72.9992 48.3619C84.1096 44.5802 80.0006 25.3343 80 16C79.9997 11.4492 80.6832 6.13389 76.6559 2.9946C71.5472 -0.987644 64.0377 0 58 0C42.7776 0 23.7947 -3.06438 9 0.53318z"/>
<path style="fill:#ffffff; stroke:none;" d="M71 0L71 1L79 6L80 6L80 0L71 0M0 43L0 50L13 50L13 49L0 43M79 44L67 49L67 50L80 50L79 44z"/>
</svg>
