<?xml version="1.0" encoding="UTF-8" ?>
<!DOCTYPE svg PUBLIC "-//W3C//DTD SVG 1.1//EN" "http://www.w3.org/Graphics/SVG/1.1/DTD/svg11.dtd">
<svg width="100pt" height="100pt" viewBox="0 0 150 150" version="1.1" xmlns="http://www.w3.org/2000/svg">

<path fill="black" transform="scale(0.132, -0.132) translate(0, -1138)" d="M631 952q0 42 25.5 75.5t58.5 33.5q35 0 59 -33q25 -31 25 -76q0 -46 -25 -75q-22 -31 -59 -31q-32 0 -58 32t-26 74zM907 864q40 0 76 -24q35 -26 54.5 -66.5t19.5 -77.5q0 -31 -21 -55q-19 -25 -32 -33h-97v256zM342 375l39 8l55 4q34 0 64 -10l2 -62l-56 4 q-126 0 -223.5 -55.5t-138.5 -93.5v82q67 53 119 80q48 20 65 24l2 86q-58 0 -94.5 10.5t-46.5 16.5q62 13 96.5 47.5t48.5 56.5q-35 0 -54.5 2t-33.5 9q-19 11 -26 18q74 0 108 66q31 57 41 102q17 -78 49 -115q29 -38 62 -47l29 -8l2 2q-18 -29 -109 -29q8 -20 42 -56.5 t95 -49.5q-7 -5 -43 -14q-16 -5 -39 -8t-55 -3v-67zM874 100l-129 162v150l-73 -101v-186q0 -18 -16 -30.5t-40 -12.5q-17 0 -34 12q-19 10 -19 31l-2 223l111 172v88h-92q-29 0 -29 37q0 35 33 41l88 4v117l18 -2h19q16 0 49 6q38 10 53 53q9 -2 29 -14q26 -18 26 -49v-510 l82 -96q10 -17 10 -35q0 -27 -20 -47q-18 -23 -41 -23q-7 0 -23 10z" />
</svg>