<?xml version="1.0" encoding="UTF-8" ?>
<!DOCTYPE svg PUBLIC "-//W3C//DTD SVG 1.1//EN" "http://www.w3.org/Graphics/SVG/1.1/DTD/svg11.dtd">
<svg width="100pt" height="100pt" viewBox="0 0 150 150" version="1.1" xmlns="http://www.w3.org/2000/svg">
<rect width="100%" height="100%" fill="white"/>
<path fill="black" transform="scale(0.132, -0.132) translate(0, -1138)" d="M0 1137h1137v-1137h-1137v1137zM29 1112v-1085h1081v1085h-1081zM631 952q0 43 25.5 76t58.5 33t58.5 -32t25.5 -77q0 -46 -25 -75q-22 -31 -59 -31q-32 0 -58 32t-26 74zM907 864q38 0 76 -24q35 -26 54.5 -66.5t19.5 -77.5q0 -29 -20 -54.5t-33 -33.5h-97v256zM342 375 l39 8l55 4q34 0 64 -10l2 -62l-56 4q-127 0 -223.5 -55t-138.5 -94v82q64 51 119 80q50 20 65 24l2 86q-58 0 -95.5 10.5t-45.5 16.5q63 12 96 46t49 58h-24h-20q-8 2 -11 2q-15 0 -33 9l-26 18q73 0 108 66q14 26 24.5 52t16.5 50q17 -78 49 -115q28 -37 62 -47l29 -8l2 2 q-18 -29 -109 -29q8 -19 41.5 -56t95.5 -50q-4 -3 -43 -14l-39 -8l-55 -3v-67zM874 100l-129 162v150l-73 -101v-186q0 -18 -15.5 -30.5t-40.5 -12.5q-16 0 -34 12q-19 10 -19 31l-2 223l111 172v88h-92q-29 0 -29 37q0 33 33 41l88 4v117l18 -2h19l49 6q37 9 53 53 q10 -2 29 -14q26 -18 26 -49v-510l82 -96q4 -8 7 -16.5t3 -18.5q0 -27 -20 -47q-18 -23 -41 -23q-6 0 -23 10z" />
</svg>