<?xml version="1.0" encoding="UTF-8" standalone="no"?><svg xmlns:svg="http://www.w3.org/2000/svg" xmlns="http://www.w3.org/2000/svg" width="128" height="128">
<g>
<path d="m 12,116 104,0" style="fill:none;stroke:#000000;stroke-width:5;stroke-linecap:butt" />
<path d="m 87,115 -46,0 12,-79 22,0 12,79 z" style="fill:#ffffff;stroke:#000000;stroke-width:3;stroke-linecap:butt;stroke-linejoin:miter;stroke-miterlimit:4;stroke-opacity:1;stroke-dasharray:none" />
<path d="m 54,37 -2,14 25,0 -2,-14 -21,0 z" style="fill:#000000;fill-opacity:1;stroke:none" />
<path d="m 50,63 28,0 2,12 -32,0 2,-12 z" style="fill:#000000;fill-opacity:1;stroke:none" />
<path d="m 45,89 38,0 2,11 -42,0 2,-11 z" style="fill:#000000;fill-opacity:1;stroke:none" />
<path d="m 72,24 a 8,8 0 1 1 -16,0 8,8 0 1 1 16,0 z"
 style="color:#000000;fill:#ffffff;fill-opacity:1;fill-rule:evenodd;stroke:#000000;stroke-width:2;stroke-linejoin:miter;stroke-miterlimit:4;" />
<path d="m 53,13 0,-2 11,-3 11,3 0,2 -22,0 z" style="fill:#000000;stroke-width:1.25" />
<path d="m 14,6 38,10 0,16 -38,10 0,-36 z" style="fill:#000000;fill-opacity:1;stroke:none" />
<path d="m 114,6 -38,10 0,16 38,10 0,-36 z" style="fill:#000000;fill-opacity:1;stroke:none" />
</g></svg>
