<?xml version="1.0" encoding="UTF-8" ?>
<!DOCTYPE svg PUBLIC "-//W3C//DTD SVG 1.1//EN" "http://www.w3.org/Graphics/SVG/1.1/DTD/svg11.dtd">
<svg width="100pt" height="100pt" viewBox="0 0 150 150" version="1.1" xmlns="http://www.w3.org/2000/svg">
<rect width="100%" height="100%" fill="white"/>
<path fill="black" transform="scale(0.132, -0.132) translate(0, -1138)" d="M0 1137h1137v-1137h-1137v1137zM692 201h170l-71 88zM31 1110v-1083h1081v1083h-1081zM764 643q30 21 57 21q42 0 70 -35q14 -22 14 -47q0 -52 -41 -78q-30 -21 -59 -21q-42 0 -68 35q-9 12 -12.5 22t-3.5 25q0 48 43 78zM999 201h37v-56h-938v93l815 720l35 -57 l-786 -700h364l-26 41q-17 26 -21 47q0 66 42.5 132t98 109t72.5 43q0 -127 92 -127q50 0 99 37l30 -43l31 -41l4 -8l4 -12q0 -26 -43 -53l45 -62z" />
</svg>