<?xml version="1.0" encoding="UTF-8" ?>
<!DOCTYPE svg PUBLIC "-//W3C//DTD SVG 1.1//EN" "http://www.w3.org/Graphics/SVG/1.1/DTD/svg11.dtd">
<svg width="100pt" height="100pt" viewBox="0 0 150 150" version="1.1" xmlns="http://www.w3.org/2000/svg">

<path fill="black" transform="scale(0.132, -0.132) translate(0, -1138)" d="M100 772v-4l203 231l119 -108l-90 -94l219 -234l260 297l-35 29l-43 29q-20 13 -55 28q-33 16 -78 25q3 0 8.5 1.5t19.5 6.5l38 9l30 3q61 0 113 -13.5t88 -39.5q84 -57 111 -123q14 -36 21 -75.5t7 -88.5q0 -26 -24 -119q-7 32 -18 60l-11 33l-9 25q-5 15 -5 16 q-3 7 -6 12q-8 21 -24.5 45.5t-43.5 54.5l-258 -301l293 -325l-84 -76l-289 313l-274 -313l-82 76l274 323l-221 238l-111 -119z" />
</svg>