<?xml version="1.0" encoding="UTF-8" ?>
<!DOCTYPE svg PUBLIC "-//W3C//DTD SVG 1.1//EN" "http://www.w3.org/Graphics/SVG/1.1/DTD/svg11.dtd">
<svg width="100pt" height="100pt" viewBox="0 0 150 150" version="1.1" xmlns="http://www.w3.org/2000/svg">

<path fill="black" transform="scale(0.132, -0.132) translate(0, -1138)" d="M893 346l156 -49v-55l-865 250q-84 39 -84 100q0 17 6 31.5t11 19.5q2 -15 15.5 -42t51.5 -42l155 -48l226 -69l129 -39q27 9 39 24.5t15 25.5l-66 170q-102 0 -175.5 5.5t-117.5 13.5q-74 12 -78 20q-31 14 -76 49.5t-51 83.5q61 0 94 24t33 105q0 11 29 14h217l95 -69 l96 -68q17 -17 56 -113q19 -47 27 -68q16 -41 40 -109l44 -124q0 -31 -22 -41zM135 844q-47 33 -47 88q0 23 12 43q23 31 64 31q33 0 74 -27q49 -38 49 -88q0 -28 -15 -45q-21 -29 -63 -29q-39 0 -74 27z" />
</svg>