<?xml version="1.0" encoding="UTF-8" ?>
<!DOCTYPE svg PUBLIC "-//W3C//DTD SVG 1.1//EN" "http://www.w3.org/Graphics/SVG/1.1/DTD/svg11.dtd">
<svg width="100pt" height="100pt" viewBox="0 0 150 150" version="1.1" xmlns="http://www.w3.org/2000/svg">

<path fill="gray" transform="scale(0.132, -0.132) translate(0, -1138)" d="M0 1137h1137v-1137h-1137v1137zM274 233l-120 -141h127l114 141h-121zM723 233h-119l115 -141h125zM881 403v-311h186v311h-186zM311 926h23l-55 -148h-54zM373 926h94v-148h-145zM532 926h91l55 -148h-146v148zM668 926h22l78 -148h-49zM238 586q0 18 16.5 37.5 t40.5 19.5t41 -16q16 -19 16 -41t-15.5 -40t-41.5 -18q-23 0 -39 19q-18 15 -18 39zM444 686q0 24 17 41q14 16 41 16q17 0 41 -18q16 -16 16 -39q0 -24 -16 -41q-19 -16 -41 -16q-24 0 -41 16q-17 14 -17 41zM647 586q0 21 17 41q19 16 41 16q18 0 37.5 -18.5t19.5 -38.5 q0 -23 -19 -39q-19 -19 -38 -19q-20 0 -39 15t-19 43zM172 418q3 -18 25 -53q18 -33 67 -43q0 -12 18 -29q18 -12 37 -12q29 0 60 34h239q23 -34 58 -34q14 0 37 12q15 6 22 22q37 15 58 35q14 17 28 58v358q0 16 -33 88l-33 59l-18 32l-20 28q-39 53 -60 53h-299 q-46 -18 -86 -75.5t-65 -110.5l-17 -35l-18 -43v-344z" />
</svg>