<?xml version="1.0" encoding="UTF-8" ?>
<!DOCTYPE svg PUBLIC "-//W3C//DTD SVG 1.1//EN" "http://www.w3.org/Graphics/SVG/1.1/DTD/svg11.dtd">
<svg width="100pt" height="100pt" viewBox="0 0 150 150" version="1.1" xmlns="http://www.w3.org/2000/svg">
<rect width="100%" height="100%" fill="white"/>
<path fill="black" transform="scale(0.132, -0.132) translate(0, -1138)" d="M0 1139h1137v-1139h-1137v1139zM29 1112v-1085h1081v1085h-1081zM76 203q42 -25 74 -25q16 0 34 6l35 23l35 20q14 9 33 9q22 0 39 -7l36 -24q23 -17 35 -21q12 -6 29 -6l19 1l18 7q9 4 16.5 9.5t16.5 13.5l34 20q21 7 35 7q34 0 72 -29q41 -29 68 -29q17 0 34 6l35 23 l37 20q12 9 33 9q30 0 71 -29t70 -29q38 0 56 9.5t24 15.5v-103q-6 -6 -29 -16t-51 -10q-16 0 -37 12l-19 10l-18 13l-30 20q-17 6 -37 6q-14 0 -19 -2q-5 0 -16 -6l-18 -11l-23 -16l-33 -20q-12 -6 -30 -6q-23 0 -48 16l-45 31q-22 14 -47 14t-47 -14l-45 -31 q-22 -16 -47 -16t-45 16q-21 11 -47 31q-23 14 -47 14q-15 0 -20 -2q-5 0 -20 -7.5t-30 -19.5l-35 -20q-18 -12 -32 -12q-39 0 -74 26v103zM287 582h778v-138h-430v-186q-34 23 -70 23q-43 0 -76 -16t-49 -29v208h-153v138z" />
</svg>