<?xml version="1.0" encoding="UTF-8" ?>
<!DOCTYPE svg PUBLIC "-//W3C//DTD SVG 1.1//EN" "http://www.w3.org/Graphics/SVG/1.1/DTD/svg11.dtd">
<svg width="100pt" height="100pt" viewBox="0 0 150 150" version="1.1" xmlns="http://www.w3.org/2000/svg">
<rect width="100%" height="100%" fill="white"/>
<path fill="black" transform="scale(0.132, -0.132) translate(0, -1138)" d="M0 1139h1137v-1139h-1137v1139zM29 1112v-1085h1081v1085h-1081zM215 907q12 29 141 90.5t162 61.5l4 -8l-14 -17l-10 -16l-4 -27q9 -40 41 -76l51 -55l26 -39q15 -26 15 -73l-4 -39q-15 -61 -106.5 -82t-147.5 -21q-51 0 -138.5 21t-87.5 82q0 55 26 77q26 20 46 25 q-6 3 -14 14q-11 11 -11 29q0 24 25 53zM854 477l-260 -264q-12 36 -12 68q0 83 54.5 131t96.5 65l-49 92h84v291q0 22 9 36q4 5 11.5 9t16.5 4q11 0 26 -12q11 -14 11 -37v-291h88l-56 -92h-20zM961 135q-51 -65 -193 -65l242 252q0 -132 -49 -187zM354 776l-24 -6l-31 -2 q-34 0 -57 -10q-24 -8 -27 -29q0 -27 45 -45l52 -13q32 -5 69 -5q50 0 113 16.5t63 69.5q0 25 -14 49l-50 65l-44 60q-8 10 -11 30q0 12 4 17q-14 0 -90 -43q-69 -43 -80 -64q0 -66 82 -90zM369 76l-226 530q111 -51 232 -51q112 0 229 51zM707 90q-12 0 -48 33 q-35 26 -38 37l286 295q6 0 27 -15l19 -15l18 -17q15 -19 16 -29z" />
</svg>