<?xml version="1.0" standalone="no"?>
<!DOCTYPE svg PUBLIC "-//W3C//DTD SVG 20010904//EN"
 "http://www.w3.org/TR/2001/REC-SVG-20010904/DTD/svg10.dtd">
<svg version="1.0" xmlns="http://www.w3.org/2000/svg"
 width="615.000000pt" height="640.000000pt" viewBox="0 0 615.000000 640.000000"
 preserveAspectRatio="xMidYMid meet">

<g transform="translate(0.000000,640.000000) scale(0.100000,-0.100000)"
fill="#000000" stroke="none">
<path d="M2630 6090 l0 -310 -360 0 -360 0 0 -230 0 -230 -255 0 -255 0 -2
-437 -3 -436 -153 -63 c-94 -38 -170 -76 -197 -98 -61 -50 -90 -114 -89 -196
0 -62 10 -88 232 -599 l232 -535 0 -698 0 -698 -23 0 c-41 0 -135 29 -277 85
-183 73 -256 88 -390 82 -120 -6 -180 -23 -333 -97 -105 -51 -224 -85 -335
-96 l-62 -7 0 -298 0 -299 58 6 c104 12 195 41 322 103 148 72 231 93 360 93
123 1 201 -19 370 -94 74 -33 178 -71 230 -85 84 -22 110 -24 225 -20 152 6
191 16 365 97 173 80 274 104 410 97 121 -7 180 -23 335 -94 186 -86 237 -98
405 -97 131 0 153 3 229 28 46 15 133 50 192 77 155 71 249 93 374 86 118 -6
195 -28 355 -102 165 -76 205 -86 355 -92 115 -4 141 -2 226 20 53 14 151 51
218 82 158 73 247 96 376 96 131 0 221 -24 383 -100 123 -58 200 -82 310 -95
l52 -7 0 304 0 304 -76 6 c-110 10 -184 31 -314 92 -161 75 -251 99 -375 99
-113 0 -185 -16 -315 -70 -152 -64 -237 -93 -289 -100 l-51 -7 0 700 0 700
226 519 c124 287 230 544 236 574 16 83 -7 154 -71 218 -41 41 -71 58 -177
102 -71 29 -144 58 -161 66 l-33 13 0 435 0 436 -260 0 -260 0 0 233 0 232
-355 -3 -355 -2 0 310 0 310 -445 0 -445 0 0 -310z m1230 -895 l0 -225 255 0
255 0 0 -176 c0 -163 -1 -176 -17 -171 -10 2 -299 121 -643 262 -344 142 -632
258 -640 257 -8 0 -298 -118 -645 -262 -346 -143 -633 -260 -637 -260 -4 0 -8
79 -8 175 l0 175 255 0 255 0 0 225 0 225 785 0 785 0 0 -225z"/>
<path d="M580 805 c-30 -8 -113 -44 -185 -79 -138 -69 -192 -85 -314 -95 l-76
-6 0 -309 0 -310 60 3 c109 4 196 28 314 87 141 69 197 89 296 104 134 20 256
-3 427 -81 207 -94 346 -127 495 -115 113 9 197 35 345 105 168 79 243 102
343 102 122 0 210 -22 380 -99 267 -119 524 -129 759 -30 237 100 332 128 435
128 98 0 179 -24 330 -95 190 -89 266 -109 416 -109 148 0 236 21 408 100 166
76 248 97 372 97 129 0 195 -18 359 -99 138 -68 219 -91 336 -95 l65 -3 0 310
0 309 -80 6 c-124 10 -170 24 -310 94 -168 84 -227 99 -370 92 -133 -6 -224
-33 -406 -118 -161 -76 -237 -93 -389 -86 -146 7 -237 31 -407 107 -156 70
-228 90 -334 90 -99 0 -195 -25 -393 -104 -324 -130 -451 -129 -781 3 -93 38
-202 76 -242 85 -155 35 -282 14 -480 -78 -150 -69 -257 -97 -398 -103 -144
-6 -223 11 -378 82 -202 94 -282 117 -422 121 -85 3 -136 0 -175 -11z"/>
</g>
</svg>
