<svg version="1.1" xmlns="http://www.w3.org/2000/svg" xmlns:xlink="http://www.w3.org/1999/xlink" x="0px" y="0px"
	 viewBox="0 0 48 48" style="enable-background:new 0 0 48 48;" xml:space="preserve">
<g id="Guide">
</g>
<g id="achre38-IN12.1">
	<path style="fill:#EC008C;" d="M26.806,24.559l-1.111,1.03l0.374,0.2c-0.38,0.674-1.078,1.128-1.854,1.196V23.7h1.417v-0.379
		h-1.417V22.59c0.498-0.1,0.873-0.539,0.873-1.067c0-0.601-0.487-1.088-1.088-1.088s-1.088,0.487-1.088,1.088
		c0,0.526,0.374,0.965,0.87,1.066v0.732h-1.414V23.7h1.414v3.282c-0.77-0.076-1.461-0.531-1.836-1.203l0.359-0.192l-1.111-1.03
		l-0.062,1.655l0.48-0.256c0.341,0.614,0.908,1.072,1.568,1.285l0.818,0.323l0.731-0.289c0.704-0.194,1.313-0.666,1.673-1.309
		l0.465,0.248L26.806,24.559z M23.291,21.523c0-0.391,0.318-0.709,0.709-0.709c0.391,0,0.709,0.318,0.709,0.709
		S24.391,22.232,24,22.232C23.609,22.232,23.291,21.914,23.291,21.523z"/>
</g>
</svg>
