<?xml version="1.0" encoding="UTF-8" ?>
<!DOCTYPE svg PUBLIC "-//W3C//DTD SVG 1.1//EN" "http://www.w3.org/Graphics/SVG/1.1/DTD/svg11.dtd">
<svg width="100pt" height="100pt" viewBox="0 0 150 150" version="1.1" xmlns="http://www.w3.org/2000/svg">
<rect width="100%" height="100%" fill="white"/>
<path fill="black" transform="scale(0.132, -0.132) translate(0, -1138)" d="M0 1137h1137v-1137h-1137v1137zM29 1110v-1083h1081v1083h-1081zM399 500v139h-86q-72 0 -129 55.5t-57 126.5q0 67 51 127t127 60q72 0 130.5 -54.5t58.5 -130.5v-86h137v86q0 75 54.5 129t129.5 54q69 0 124.5 -54.5t55.5 -128.5q0 -73 -52.5 -128.5t-125.5 -55.5h-88 v-139h88q74 0 126 -55t52 -130q0 -69 -53.5 -126.5t-126.5 -57.5q-51 0 -89.5 22.5t-66.5 65.5t-28 96v82h-137v-80q0 -51 -25.5 -92t-69.5 -69q-44 -25 -90 -25q-77 0 -135 64q-45 51 -45 118q0 49 23.5 91t65.5 69t95 27h86zM729 823v-86h86q35 0 61.5 27.5t26.5 60.5 q0 24 -16 52q-24 36 -68 36q-33 0 -61.5 -25t-28.5 -65zM877 242q28 25 28 65q0 37 -23 63q-21 27 -67 27h-86v-82q0 -45 28 -69q11 -9 27.5 -16t36.5 -7q36 0 56 19zM262 244q30 -19 53 -19q33 0 59 29q25 31 25 61v82h-86q-42 0 -66 -24q-22 -25 -22 -58q0 -46 37 -71z M240 870q-15 -21 -15 -49q0 -31 28 -59q28 -25 60 -25h86v88q0 39 -24.5 63.5t-59.5 24.5q-50 0 -75 -43zM494 639v-139h137v139h-137z" />
</svg>