<?xml version="1.0" encoding="UTF-8" ?>
<!DOCTYPE svg PUBLIC "-//W3C//DTD SVG 1.1//EN" "http://www.w3.org/Graphics/SVG/1.1/DTD/svg11.dtd">
<svg width="100pt" height="100pt" viewBox="0 0 150 150" version="1.1" xmlns="http://www.w3.org/2000/svg">
<rect width="100%" height="100%" fill="white"/>
<path fill="black" transform="scale(0.132, -0.132) translate(0, -1138)" d="M0 1139h1137v-1139h-1137v1139zM29 1112v-1085h1081v1085h-1081zM641 1065h344l-141 -240q-68 -121 -68 -215v-37q0 -55 -22 -102l-185 -287q-41 18 -41 92q0 45 15 72l71 123q45 69 45 162q0 76 -31.5 127.5t-103.5 68.5q-6 0 -6 9l4 22zM395 692q45 66 113 66 q27 0 53 -15q45 -30 45 -90q0 -43 -28 -84q-42 -65 -115 -65q-31 0 -51 14q-45 33 -45 90q0 43 28 84zM463 186q0 -12 -55 -100h-27q-3 1 -6 3t-8 6l-15 14q-35 26 -65 26q-15 0 -20 -2q-5 0 -20 -7.5t-30 -19.5l-35 -20q-18 -12 -32 -12q-39 0 -74 26v103q42 -25 74 -25 q16 0 34 6l35 23l35 20q14 9 33 9q22 0 39 -7l36 -24q23 -17 35 -21q12 -6 29 -6q26 0 37 8zM651 195q29 -17 54 -17q17 0 34 6l35 23l37 20q12 9 33 9q30 0 71 -29t70 -29q38 0 56 9.5t24 15.5v-103q-6 -6 -29 -16t-51 -10q-16 0 -37 12l-19 10l-18 13l-30 20q-17 6 -37 6 q-14 0 -19 -2q-5 0 -16 -6l-18 -11l-23 -16l-33 -20q-12 -6 -30 -6q-21 0 -33 8l-31 18l-31 21z" />
</svg>