<?xml version="1.0" encoding="UTF-8" ?>
<!DOCTYPE svg PUBLIC "-//W3C//DTD SVG 1.1//EN" "http://www.w3.org/Graphics/SVG/1.1/DTD/svg11.dtd">
<svg width="100pt" height="100pt" viewBox="0 0 150 150" version="1.1" xmlns="http://www.w3.org/2000/svg">
<rect width="100%" height="100%" fill="white"/>
<path fill="black" transform="scale(0.132, -0.132) translate(0, -1138)" d="M0 1139h1137v-1139h-1137v1139zM29 1112v-1085h1081v1085h-1081zM197 975l741 2l-61 -193h-60v119h-498v-119h-59zM571 748q9 20 27 36q25 19 57 19q80 0 80 -117q0 -10 -63 -88l-101 -121l-102 121q-60 74 -63 88q0 117 81 117q33 0 56 -19q12 -12 28 -36zM256 686h61 v-508h500v508h62v-508h172v-65h-967v65h172v508z" />
</svg>