<?xml version="1.0" standalone="no"?>
<!DOCTYPE svg PUBLIC "-//W3C//DTD SVG 20010904//EN"
 "http://www.w3.org/TR/2001/REC-SVG-20010904/DTD/svg10.dtd">
<svg version="1.0" xmlns="http://www.w3.org/2000/svg"
 width="35.000000pt" height="38.000000pt" viewBox="0 0 35.000000 38.000000"
 preserveAspectRatio="xMidYMid meet">

<g transform="translate(0.000000,38.000000) scale(0.100000,-0.100000)"
fill="#000000" stroke="none">
<path d="M223 254 l-44 -46 -45 21 c-46 22 -104 28 -104 11 0 -17 48 -41 97
-48 l48 -7 5 -50 c7 -57 26 -99 42 -89 14 9 2 91 -18 122 -13 20 -14 26 -3 33
8 5 19 9 25 9 14 0 74 66 74 80 0 24 -37 6 -77 -36z"/>
</g>
</svg>
